<svg xmlns="http://www.w3.org/2000/svg" width="405" height="332" viewBox="0 0 405 332"><g><g><g><path fill="#a1ffd9" d="M.782 332v-30h403.575v30z"/></g><g><g><g><path fill="#f5f5f5" d="M.782 210.196V48.736h26.547v161.46z"/></g><g><path fill="#f5f5f5" d="M90.782 178.196V5.622h26.547v172.574z"/></g><g><path fill="#f5f5f5" d="M297.782 213.196V45.736h96.791v167.46z"/></g><g><path fill="#f5f5f5" d="M249.782 167.196V48.53h34.257v118.665z"/></g><g><path fill="#f5f5f5" d="M149.782 200.196V5.53h34.257v194.665z"/></g></g><g><g><path fill="#c4d1fe" d="M9.329 209.196V54.317h59.697v154.879z"/></g><g><path fill="#a1ffd9" d="M77.782 209.196V.58h96.791v208.616z"/></g><g><path fill="#7affcb" d="M183.782 209.196v-44.432h96.791v44.432z"/></g><g><path fill="#c4d1fe" d="M289.782 209.196V54.317h96.791v154.879z"/></g></g></g><g><path fill="#8091ff" d="M.782 293.76v-76.28h403.575v76.28z"/></g><g><g><path fill="#bffee6" d="M86.133 32.665V20.53h36.598v12.134z"/></g><g><path fill="#31feae" d="M86.133 54.665V42.53h36.598v12.134z"/></g><g><path fill="#31feae" d="M297.573 162.665V150.53h83.718v12.134z"/></g><g><path fill="#31feae" d="M298.573 184.665V172.53h83.718v12.134z"/></g><g><path fill="#a1feda" d="M21.133 78.665V66.53h36.598v12.134z"/></g><g><path fill="#3564fb" d="M21.133 198.665V186.53h36.598v12.134z"/></g><g><path fill="#a2b8ff" d="M21.133 143.665v-49.05h36.598v49.05z"/></g><g><path fill="#7d9cff" d="M126.133 122.195V87.531h36.598v34.664z"/></g><g><path fill="#3b5dca" d="M83.133 121.195V86.531h36.598v34.664z"/></g><g><path fill="#597ff7" d="M117.133 192.195v-34.664h36.598v34.664z"/></g><g><path fill="#bffee6" d="M298.452 93.386V68.531h62.84v24.855z"/></g><g><path fill="#5f84fb" d="M323.709 114.376V96.388h17.447v17.988z"/></g><g><path fill="#5f84fb" d="M323.709 140.376v-17.988h17.447v17.988z"/></g><g><path fill="#5f84fb" d="M298.709 140.376v-17.988h17.447v17.988z"/></g><g><path fill="#31feae" d="M298.709 114.376V96.388h17.447v17.988z"/></g><g><path fill="#7d9cff" d="M361.709 114.376V96.388h17.447v17.988z"/></g><g><path fill="#aebff7" d="M361.709 142.376v-17.988h17.447v17.988z"/></g></g><g><path fill="#ccc8ff" d="M221.487 299.465c.978-.302-17.851-39.028.259-85.281 43.603.157 39.974 0 39.974 0s-11.39 42.656 5.459 85.28c-47.39-1.671-46.67.302-45.692 0z"/></g><g><g><g><path fill="none" stroke="#fff" stroke-miterlimit="50" stroke-width="2" d="M39.177 257.318s18.213 3.509 21.796-5.228"/></g><g><path fill="none" stroke="#fff" stroke-miterlimit="50" stroke-width="2" d="M74.48 257.318v0s-1.52.425-3.78.625c-3.735.334-9.631-.156-11.241-5.853"/></g></g><g><g><path fill="none" stroke="#fff" stroke-miterlimit="50" stroke-width="2" d="M113.177 243.318s18.213 3.509 21.796-5.228"/></g><g><path fill="none" stroke="#fff" stroke-miterlimit="50" stroke-width="2" d="M148.48 243.318v0s-1.52.425-3.78.625c-3.735.334-9.631-.156-11.241-5.853"/></g></g><g><g><path fill="none" stroke="#fff" stroke-miterlimit="50" stroke-width="2" d="M124.177 274.318s18.213 3.509 21.796-5.228"/></g><g><path fill="none" stroke="#fff" stroke-miterlimit="50" stroke-width="2" d="M159.48 274.318v0s-1.52.425-3.78.625c-3.735.334-9.631-.156-11.241-5.853"/></g></g><g><g><path fill="none" stroke="#fff" stroke-miterlimit="50" stroke-width="2" d="M354.177 271.318s18.213 3.509 21.796-5.228"/></g><g><path fill="none" stroke="#fff" stroke-miterlimit="50" stroke-width="2" d="M389.48 271.318v0s-1.52.425-3.78.625c-3.735.334-9.631-.156-11.241-5.853"/></g></g><g><g><path fill="none" stroke="#fff" stroke-miterlimit="50" stroke-width="2" d="M284.177 240.318s18.213 3.509 21.796-5.228"/></g><g><path fill="none" stroke="#fff" stroke-miterlimit="50" stroke-width="2" d="M319.48 240.318v0s-1.52.425-3.78.625c-3.735.334-9.631-.156-11.241-5.853"/></g></g></g><g><g><g><path fill="#606cb9" d="M16 284c0-1 1-2 2-2h1c1 0 2 1 2 2v21c0 1-1 2-2 2h-1c-1 0-2-1-2-2z"/></g><g><path fill="#606cb9" d="M91 284c0-1 1-2 2-2h1c1 0 2 1 2 2v21c0 1-1 2-2 2h-1c-1 0-2-1-2-2z"/></g><g><path fill="#606cb9" d="M166 284c0-1 1-2 2-2h1c1 0 2 1 2 2v21c0 1-1 2-2 2h-1c-1 0-2-1-2-2z"/></g><g><path fill="#606cb9" d="M41 284c0-1 1-2 2-2h1c1 0 2 1 2 2v21c0 1-1 2-2 2h-1c-1 0-2-1-2-2z"/></g><g><path fill="#606cb9" d="M116 284c0-1 1-2 2-2h1c1 0 2 1 2 2v21c0 1-1 2-2 2h-1c-1 0-2-1-2-2z"/></g><g><path fill="#606cb9" d="M191 284c0-1 1-2 2-2h1c1 0 2 1 2 2v21c0 1-1 2-2 2h-1c-1 0-2-1-2-2z"/></g><g><path fill="#606cb9" d="M66 284c0-1 1-2 2-2h1c1 0 2 1 2 2v21c0 1-1 2-2 2h-1c-1 0-2-1-2-2z"/></g><g><path fill="#606cb9" d="M141 284c0-1 1-2 2-2h1c1 0 2 1 2 2v21c0 1-1 2-2 2h-1c-1 0-2-1-2-2z"/></g></g><g><g><path fill="none" stroke="#a1ffd9" stroke-miterlimit="50" stroke-width="3" d="M18.5 286c.427-.951 14.199 16.906 25.443 0"/></g><g><path fill="none" stroke="#a1ffd9" stroke-miterlimit="50" stroke-width="3" d="M43.5 287c.427-.951 14.199 16.906 25.443 0"/></g><g><path fill="none" stroke="#a1ffd9" stroke-miterlimit="50" stroke-width="3" d="M68.5 285c.427-.951 14.199 16.906 25.443 0"/></g><g><path fill="none" stroke="#a1ffd9" stroke-miterlimit="50" stroke-width="3" d="M93.5 287c.427-.951 14.199 16.906 25.443 0"/></g><g><path fill="none" stroke="#a1ffd9" stroke-miterlimit="50" stroke-width="3" d="M119.5 285c.427-.951 14.199 16.906 25.443 0"/></g><g><path fill="none" stroke="#a1ffd9" stroke-miterlimit="50" stroke-width="3" d="M143.5 289c.427-.951 14.199 16.906 25.443 0"/></g><g><path fill="none" stroke="#a1ffd9" stroke-miterlimit="50" stroke-width="3" d="M168.5 287c.427-.951 14.199 16.906 25.443 0"/></g></g></g></g></g></svg>