<svg xmlns="http://www.w3.org/2000/svg" width="277" height="274" viewBox="0 0 277 274"><g><g><g><path fill="#fff" d="M2 137C2 61.337 63.337 0 139 0s137 61.337 137 137-61.337 137-137 137S2 212.663 2 137z"/></g><g><path fill="#ffde17" d="M171.431 271.507l.002-.002c5.469-6.843 8.36-14.94 8.36-23.415 0-22.035-19.785-39.962-44.102-39.962-1.124 0-2.253.038-3.355.114v-.114h-.495c-3.094-19.499-19.692-33.65-39.466-33.65-3.356 0-6.692.416-9.916 1.239-6.963-13.09-20.49-21.22-35.304-21.22-17.792 0-33.603 11.941-38.45 29.04-5.19-14.702-7.82-30.134-7.82-45.867 0-9.347.942-18.688 2.799-27.764a137.066 137.066 0 0 1 8.027-25.859 137.78 137.78 0 0 1 12.701-23.4 138.758 138.758 0 0 1 16.822-20.389 138.763 138.763 0 0 1 20.389-16.822 137.789 137.789 0 0 1 23.4-12.701 137.072 137.072 0 0 1 25.86-8.027 138.775 138.775 0 0 1 27.763-2.8c9.347 0 18.688.942 27.764 2.8a137.067 137.067 0 0 1 25.859 8.027 137.785 137.785 0 0 1 23.4 12.701 138.759 138.759 0 0 1 20.389 16.822 138.74 138.74 0 0 1 16.822 20.388 137.784 137.784 0 0 1 12.701 23.401 137.067 137.067 0 0 1 8.028 25.86 138.777 138.777 0 0 1 2.798 27.763c0 15.846-2.667 31.382-7.929 46.175a137.23 137.23 0 0 1-21.963 39.522 138.173 138.173 0 0 1-33.262 30.133 136.764 136.764 0 0 1-41.82 18.006z"/></g></g></g></svg>