<svg xmlns="http://www.w3.org/2000/svg" width="293" height="201" viewBox="0 0 293 201"><g><g><g><path fill="#494656" d="M.91 92.333c0-28.544 24.758-51.683 55.298-51.683 30.54 0 55.299 23.14 55.299 51.683s-24.758 51.682-55.299 51.682C25.668 144.015.91 120.876.91 92.333z"/></g><g><path fill="#494656" d="M41.52 69.722c0-28.544 24.758-51.683 55.298-51.683 30.54 0 55.298 23.14 55.298 51.683s-24.758 51.682-55.298 51.682c-30.54 0-55.298-23.139-55.298-51.682z"/></g><g><path fill="#494656" d="M90.77 82.346c0-30.54 24.758-55.298 55.298-55.298 30.54 0 55.298 24.758 55.298 55.298 0 30.54-24.758 55.298-55.298 55.298-30.54 0-55.298-24.757-55.298-55.298z"/></g><g><path fill="#494656" d="M103.73 51.956c0-28.544 24.758-51.683 55.298-51.683 30.54 0 55.299 23.14 55.299 51.683s-24.758 51.682-55.299 51.682c-30.54 0-55.298-23.139-55.298-51.682z"/></g><g><path fill="#494656" d="M159.028 79.412c0-28.543 24.758-51.682 55.299-51.682 30.54 0 55.298 23.139 55.298 51.682 0 28.543-24.758 51.682-55.298 51.682-30.54 0-55.299-23.139-55.299-51.682z"/></g><g><path fill="#494656" d="M181.493 109.291c0-28.543 24.758-51.682 55.299-51.682 30.54 0 55.298 23.139 55.298 51.682 0 28.543-24.758 51.682-55.298 51.682-30.54 0-55.299-23.139-55.299-51.682z"/></g><g><path fill="#494656" d="M111.507 105.675c0-30.54 24.757-55.298 55.298-55.298 30.54 0 55.298 24.758 55.298 55.298 0 30.54-24.758 55.298-55.298 55.298-30.54 0-55.298-24.757-55.298-55.298z"/></g><g><path fill="#494656" d="M41.52 109.291c0-28.543 24.758-51.682 55.298-51.682 30.54 0 55.298 23.139 55.298 51.682 0 28.543-24.758 51.682-55.298 51.682-30.54 0-55.298-23.139-55.298-51.682z"/></g><g><path fill="none" stroke="#fd0" stroke-miterlimit="50" stroke-width="18" d="M204.39 194.239v0l-61.346-61.347v0l22.465-10.368v0l26.785 5.184v0l9.504-22.465v0L163.781 68.09v0"/></g><g><path fill="none" stroke="#fd0" stroke-miterlimit="50" stroke-width="15" d="M69.066 89.78v0l31.24 25.869v0L75.512 137.88v0l17.274 36.2v0"/></g></g></g></svg>